<svg xmlns="http://www.w3.org/2000/svg" width="920" height="360" viewBox="0 0 920 360" role="img" aria-label="Quick Comp, Real Estate Intelligence Instantly">
  <defs>
    <linearGradient id="navy" x1="120" y1="32" x2="500" y2="310" gradientUnits="userSpaceOnUse">
      <stop offset="0" stop-color="#07162D"/>
      <stop offset="1" stop-color="#111B42"/>
    </linearGradient>
    <linearGradient id="gold" x1="250" y1="140" x2="330" y2="238" gradientUnits="userSpaceOnUse">
      <stop offset="0" stop-color="#E6BF6A"/>
      <stop offset="1" stop-color="#BD8426"/>
    </linearGradient>
  </defs>

  <rect width="920" height="360" rx="34" fill="#F8FAFD"/>

  <g transform="translate(110 38)">
    <path d="M126 205c-51.36 0-93-41.64-93-93s41.64-93 93-93c37.9 0 70.5 22.68 85 55.2" fill="none" stroke="url(#navy)" stroke-width="28" stroke-linecap="round"/>
    <path d="M181 181l47 48" fill="none" stroke="url(#navy)" stroke-width="28" stroke-linecap="round"/>
    <path d="M212 85c18.7-20 44.7-31 74.1-31 30.8 0 58.2 13.8 76.6 35.5" fill="none" stroke="url(#navy)" stroke-width="28" stroke-linecap="butt"/>
    <path d="M363 160c-18.4 21.7-45.8 35.5-76.6 35.5-31 0-58.7-13.9-77.1-35.8" fill="none" stroke="url(#navy)" stroke-width="28" stroke-linecap="butt"/>

    <rect x="107" y="137" width="22" height="47" rx="3" fill="url(#gold)"/>
    <rect x="142" y="112" width="22" height="72" rx="3" fill="url(#gold)"/>
    <rect x="177" y="82" width="22" height="102" rx="3" fill="url(#gold)"/>
  </g>

  <text x="460" y="160" text-anchor="middle" fill="#07162D" font-family="Inter, Arial, sans-serif" font-size="58" font-weight="900" letter-spacing="12">QUICK COMP</text>
  <line x1="377" y1="196" x2="543" y2="196" stroke="#C9973A" stroke-width="3" stroke-linecap="round"/>
  <text x="460" y="242" text-anchor="middle" fill="#07162D" font-family="Inter, Arial, sans-serif" font-size="19" font-weight="800" letter-spacing="7">REAL ESTATE INTELLIGENCE. INSTANTLY.</text>
</svg>
